<svg xmlns="http://www.w3.org/2000/svg" viewBox="0 0 24 24" fill="none" stroke="currentColor" stroke-width="0.62"><path d="M20.52 16.18L20.52 14.38M20.52 12.9L20.52 11.1M20.52 9.62L20.52 7.82M19.88 17.29L18.32 18.19M17.04 18.93L15.48 19.83M14.2 20.57L12.64 21.47M3.48 16.18L3.48 14.38M3.48 12.9L3.48 11.1M3.48 9.62L3.48 7.82M4.12 17.29L5.68 18.19M6.96 18.93L8.52 19.83M9.8 20.57L11.36 21.47M11.36 2.53L9.8 3.43M8.52 4.17L6.96 5.07M5.68 5.81L4.12 6.71M12.64 2.53L14.2 3.43M15.48 4.17L17.04 5.07M18.32 5.81L19.88 6.71M16.26 18.64L16.26 16.84M16.26 15.36L16.26 13.56M16.26 12.08L16.26 10.28M19.88 12.37L18.32 13.27M17.04 14.01L15.48 14.91M14.2 15.65L12.64 16.55M7.74 18.64L7.74 16.84M7.74 15.36L7.74 13.56M7.74 12.08L7.74 10.28M4.12 12.37L5.68 13.27M6.96 14.01L8.52 14.91M9.8 15.65L11.36 16.55M15.62 4.99L14.06 5.89M12.78 6.63L11.22 7.53M9.94 8.27L8.38 9.17M8.38 4.99L9.94 5.89M11.22 6.63L12.78 7.53M14.06 8.27L15.62 9.17M12 21.1L12 19.3M12 17.82L12 16.02M12 14.54L12 12.74M19.88 7.45L18.32 8.35M17.04 9.09L15.48 9.99M14.2 10.73L12.64 11.63M4.12 7.45L5.68 8.35M6.96 9.09L8.52 9.99M9.8 10.73L11.36 11.63"/></svg>