<svg width="262" height="262" viewBox="0 0 262 262" fill="none" xmlns="http://www.w3.org/2000/svg">
<path d="M203.426 168.088V156.638M203.426 147.18V135.731M203.426 126.273V114.823M203.426 105.365V93.9156M199.361 175.14L189.405 180.948M181.274 185.594L171.318 191.401M163.104 196.048L153.148 201.855M145.018 206.501L135.062 212.309M58.5664 168.088V156.638M58.5664 147.18V135.731M58.5664 126.273V114.823M58.5664 105.365V93.9156M62.6318 175.14L72.5878 180.948M80.7185 185.594L90.6745 191.401M98.8882 196.048L108.844 201.855M116.975 206.501L126.931 212.309M126.931 49.6943L116.975 55.502M108.844 60.1481L98.8882 65.9558M90.6745 70.6019L80.7185 76.4096M72.5878 81.0557L62.6318 86.8634M135.062 49.6943L145.018 55.502M153.148 60.1481L163.104 65.9558M171.318 70.6019L181.274 76.4096M189.405 81.0557L199.361 86.8634M167.17 188.995V177.546M167.17 168.088V156.638M167.17 147.18V135.731M167.17 126.273V114.823M199.361 133.325L189.405 139.132M181.274 143.779L171.318 149.586M163.104 154.232L153.148 160.04M145.018 164.686L135.062 170.494M94.8228 188.995V177.546M94.8228 168.088V156.638M94.8228 147.18V135.731M94.8228 126.273V114.823M62.6318 133.325L72.5878 139.132M80.7185 143.779L90.6745 149.586M98.8882 154.232L108.844 160.04M116.975 164.686L126.931 170.494M163.104 70.6019L153.148 76.4096M145.018 81.0557L135.062 86.8634M126.931 91.5095L116.975 97.3172M108.844 101.963L98.8882 107.771M98.8882 70.6019L108.844 76.4096M116.975 81.0557L126.931 86.8634M135.062 91.5095L145.018 97.3172M153.148 101.963L163.104 107.771M130.996 209.903V198.454M130.996 188.995V177.546M130.996 168.088V156.638M130.996 147.18V135.731M199.361 91.5095L189.405 97.3172M181.274 101.963L171.318 107.771M163.104 112.417L153.148 118.225M145.018 122.871L135.062 128.679M62.6318 91.5095L72.5878 97.3172M80.7185 101.963L90.6745 107.771M98.8882 112.417L108.844 118.225M116.975 122.871L126.931 128.679" stroke="currentColor" stroke-width="18"/>
</svg>
